M48
;Layer_Color=9474304
;FILE_FORMAT=2:5
INCH,LZ
;TYPE=PLATED
T1F00S00C0.01400
T2F00S00C0.05000
T3F00S00C0.12600
%
T01
X01318Y01043
X01042Y01321
X01658Y01227
X01664Y01126
X01705Y01404
X01811Y01403
X01876Y01398
X0201Y01378
Y01207
X02026Y01124
X02075Y01494
X02145Y01524
X02918Y01326
X02646Y01041
X02526Y01605
X02576Y0171
Y0188
X02921Y01895
X02647Y02174
X0228344Y02045
X01885Y02037
X01945Y01905
X02032Y0188
X0206Y01833
X01981Y01747
X01847Y01735
X01805Y01738
X01771Y0177
X01785Y01672
X01877Y01599
X01685Y01813
X01695Y01905
X0221756Y0169256
X01325Y02179
X01041Y01898
T02
X02335Y0141
X02435
Y0151
X02335
Y0161
X02435
Y0171
Y0181
X02335
Y0171
T03
X0116Y0116
X02808Y01161
Y0206047
X0116
M30
