%FSLAX25Y25*%
%MOIN*%
G70*
G01*
G75*
G04 Layer_Physical_Order=1*
G04 Layer_Color=255*
%ADD10R,0.07600X0.04700*%
%ADD11R,0.07600X0.09500*%
%ADD12R,0.08400X0.08400*%
%ADD13R,0.05400X0.01600*%
%ADD14R,0.21654X0.07874*%
%ADD15R,0.04000X0.03500*%
%ADD16R,0.06400X0.13200*%
%ADD17R,0.06400X0.04800*%
%ADD18R,0.03500X0.04000*%
%ADD19R,0.03543X0.03150*%
%ADD20R,0.11000X0.04000*%
%ADD21R,0.03150X0.03543*%
%ADD22R,0.09600X0.03200*%
%ADD23R,0.06102X0.00984*%
%ADD24R,0.00984X0.06102*%
%ADD25R,0.04600X0.04000*%
%ADD26C,0.01000*%
%ADD27C,0.02000*%
%ADD28C,0.01500*%
%ADD29C,0.03000*%
%ADD30C,0.13600*%
%ADD31C,0.09000*%
%ADD32R,0.09000X0.09000*%
%ADD33C,0.02800*%
G36*
X267386Y205997D02*
X267382Y205992D01*
X267376Y205992D01*
X267537Y203946D01*
X268029Y201897D01*
X268835Y199951D01*
X269936Y198154D01*
X271305Y196552D01*
X272907Y195183D01*
X274704Y194082D01*
X276650Y193276D01*
X278699Y192784D01*
X280800Y192619D01*
X280896Y192626D01*
X280896Y192626D01*
Y192626D01*
X280903Y192633D01*
X295294Y192573D01*
X295600Y192320D01*
Y129775D01*
X295299Y129527D01*
X280814Y129515D01*
X280800Y129529D01*
Y129528D01*
X278699Y129363D01*
X276650Y128871D01*
X274704Y128065D01*
X272907Y126964D01*
X271305Y125595D01*
X269936Y123993D01*
X268835Y122196D01*
X268029Y120250D01*
X267537Y118201D01*
X267372Y116100D01*
X267379Y116000D01*
X267379Y116000D01*
X267379D01*
X267386Y115993D01*
X267373Y101501D01*
X267277Y101385D01*
X129687D01*
X129427Y101701D01*
X129415Y115986D01*
X129429Y116000D01*
X129429D01*
X129263Y118101D01*
X128771Y120150D01*
X127965Y122096D01*
X126864Y123893D01*
X125495Y125495D01*
X123893Y126864D01*
X122096Y127965D01*
X120150Y128771D01*
X118101Y129263D01*
X116000Y129429D01*
X115886Y129420D01*
X115886Y129420D01*
Y129420D01*
X115881Y129414D01*
X101401Y129427D01*
X101400Y129429D01*
Y192318D01*
X101754Y192671D01*
X115744Y192635D01*
X115757Y192638D01*
X116000Y192619D01*
X118101Y192784D01*
X120150Y193276D01*
X122096Y194082D01*
X123893Y195183D01*
X125495Y196552D01*
X126864Y198154D01*
X127965Y199951D01*
X128771Y201897D01*
X129263Y203946D01*
X129416Y205888D01*
X129416D01*
X129412Y205894D01*
X129414Y205904D01*
X129427Y220585D01*
X267373D01*
X267386Y205997D01*
D02*
G37*
%LPC*%
G36*
X133200Y140956D02*
X131450D01*
Y138956D01*
X133200D01*
Y140956D01*
D02*
G37*
G36*
X136950D02*
X135200D01*
Y138956D01*
X136950D01*
Y140956D01*
D02*
G37*
G36*
X220600Y116300D02*
X215100D01*
Y114300D01*
X220600D01*
Y116300D01*
D02*
G37*
G36*
X232500Y140000D02*
X228084D01*
X228142Y139564D01*
X228696Y138226D01*
X229577Y137077D01*
X230726Y136196D01*
X232064Y135642D01*
X232500Y135584D01*
Y140000D01*
D02*
G37*
G36*
X143650Y145844D02*
X138350D01*
Y140044D01*
X138350D01*
Y139652D01*
X138328Y139631D01*
X138328D01*
Y134681D01*
X143672D01*
Y139631D01*
X143650D01*
Y140044D01*
X143650D01*
Y141084D01*
X144091Y141320D01*
X144113Y141305D01*
X144298Y141181D01*
X144844Y141073D01*
X145200D01*
Y139600D01*
X151600D01*
Y145400D01*
X145200D01*
Y144607D01*
X144814Y144289D01*
X144400Y144372D01*
X144400Y144372D01*
X143650D01*
Y145844D01*
D02*
G37*
G36*
X216450Y161900D02*
X214700D01*
Y159900D01*
X216450D01*
Y161900D01*
D02*
G37*
G36*
X122100Y177600D02*
X117900D01*
Y173400D01*
X122100D01*
Y177600D01*
D02*
G37*
G36*
X212700Y161900D02*
X210950D01*
Y159900D01*
X212700D01*
Y161900D01*
D02*
G37*
G36*
X207800Y140450D02*
X202000D01*
Y140340D01*
X201613Y140023D01*
X201000Y140145D01*
X200103Y139967D01*
X199342Y139458D01*
X198833Y138697D01*
X198655Y137800D01*
X198833Y136903D01*
X199342Y136142D01*
X200103Y135633D01*
X201000Y135455D01*
X201613Y135577D01*
X202000Y135260D01*
Y135150D01*
X207800D01*
Y140450D01*
D02*
G37*
G36*
X122100Y148800D02*
X117900D01*
Y144600D01*
X122100D01*
Y148800D01*
D02*
G37*
G36*
X161800Y112300D02*
X156300D01*
Y110300D01*
X161800D01*
Y112300D01*
D02*
G37*
G36*
X177300D02*
X171800D01*
Y110300D01*
X177300D01*
Y112300D01*
D02*
G37*
G36*
X154300D02*
X148800D01*
Y110300D01*
X154300D01*
Y112300D01*
D02*
G37*
G36*
X249256Y113072D02*
X247681D01*
Y112972D01*
X247219D01*
Y112972D01*
X242269D01*
Y112950D01*
X241956D01*
Y112950D01*
X236156D01*
Y107650D01*
X241956D01*
Y107650D01*
X242248D01*
X242269Y107628D01*
Y107628D01*
X247219D01*
Y107628D01*
X247581D01*
X247681Y107528D01*
Y107528D01*
X249256D01*
Y110300D01*
Y113072D01*
D02*
G37*
G36*
X252831Y109300D02*
X251256D01*
Y107528D01*
X252831D01*
Y109300D01*
D02*
G37*
G36*
Y113072D02*
X251256D01*
Y111300D01*
X252831D01*
Y113072D01*
D02*
G37*
G36*
X213100Y116300D02*
X207600D01*
Y114300D01*
X213100D01*
Y116300D01*
D02*
G37*
G36*
X220600Y112300D02*
X215100D01*
Y110300D01*
X220600D01*
Y112300D01*
D02*
G37*
G36*
X197600D02*
X192100D01*
Y110300D01*
X197600D01*
Y112300D01*
D02*
G37*
G36*
X213100D02*
X207600D01*
Y110300D01*
X213100D01*
Y112300D01*
D02*
G37*
G36*
X249256Y214472D02*
X247681D01*
Y214372D01*
X247219D01*
Y214372D01*
X242269D01*
Y214350D01*
X242000D01*
Y214350D01*
X236200D01*
Y209050D01*
X242000D01*
Y209050D01*
X242248D01*
X242269Y209028D01*
Y209028D01*
X247219D01*
Y209028D01*
X247581D01*
X247681Y208928D01*
Y208928D01*
X249256D01*
Y211700D01*
Y214472D01*
D02*
G37*
G36*
X252831Y210700D02*
X251256D01*
Y208928D01*
X252831D01*
Y210700D01*
D02*
G37*
G36*
X235644Y214350D02*
X229844D01*
Y210796D01*
X229581Y210402D01*
X229473Y209856D01*
X229473Y209856D01*
Y207647D01*
X228616Y206791D01*
X228344Y206845D01*
X227447Y206667D01*
X226686Y206158D01*
X226178Y205397D01*
X225999Y204500D01*
X226178Y203603D01*
X226686Y202842D01*
X227447Y202333D01*
X228344Y202155D01*
X229242Y202333D01*
X230002Y202842D01*
X230511Y203603D01*
X230689Y204500D01*
X230635Y204772D01*
X231909Y206046D01*
X231909Y206047D01*
X232219Y206509D01*
X232327Y207056D01*
X232327Y207056D01*
Y209050D01*
X235644D01*
Y214350D01*
D02*
G37*
G36*
X134800Y193755D02*
X131600D01*
Y191355D01*
X134800D01*
Y193755D01*
D02*
G37*
G36*
X143400Y200450D02*
X141400D01*
Y198700D01*
X143400D01*
Y200450D01*
D02*
G37*
G36*
X156544Y214450D02*
Y214450D01*
X154544D01*
Y211700D01*
Y208950D01*
X156544D01*
Y209050D01*
X157000D01*
Y209050D01*
X157885D01*
Y208737D01*
X157885D01*
Y199063D01*
X181339D01*
Y201889D01*
X181800Y202081D01*
X185988Y197893D01*
Y191386D01*
X185547Y191151D01*
X185146Y191419D01*
X184956Y191457D01*
Y192750D01*
X179156D01*
Y192750D01*
X178800D01*
X178700Y192850D01*
Y192850D01*
X176700D01*
Y190100D01*
Y187350D01*
X178700D01*
Y187450D01*
X179156D01*
Y187450D01*
X184020D01*
Y186651D01*
X176181D01*
Y179152D01*
X175442Y178658D01*
X175305Y178454D01*
X171700D01*
X171522Y178419D01*
X167749D01*
Y176484D01*
X167212Y176377D01*
X166749Y176068D01*
X166749Y176067D01*
X165562Y174881D01*
X165100Y175072D01*
Y179363D01*
X167259D01*
X167603Y179133D01*
X168500Y178955D01*
X169397Y179133D01*
X170158Y179642D01*
X170667Y180403D01*
X170845Y181300D01*
X170667Y182197D01*
X170158Y182958D01*
X169397Y183467D01*
X168500Y183645D01*
X167603Y183467D01*
X167259Y183237D01*
X165100D01*
Y188800D01*
X163800D01*
X163718Y188900D01*
Y194900D01*
X163648Y195251D01*
X163449Y195549D01*
X163151Y195748D01*
X162800Y195818D01*
X153656D01*
Y200350D01*
X147856D01*
Y200350D01*
X147500D01*
X147400Y200450D01*
Y200450D01*
X145400D01*
Y197700D01*
X144400D01*
Y196700D01*
X141400D01*
Y195818D01*
X141000D01*
X140649Y195748D01*
X140351Y195549D01*
X140152Y195251D01*
X140082Y194900D01*
Y193755D01*
X140082D01*
X140000D01*
X139729Y193755D01*
X139729Y193755D01*
Y193755D01*
X136800D01*
Y190355D01*
X135800D01*
Y189355D01*
X131600D01*
Y186955D01*
X131847D01*
X131993Y186477D01*
X131951Y186449D01*
X131752Y186151D01*
X131682Y185800D01*
Y184700D01*
X131702Y184602D01*
X131700Y184600D01*
X131700D01*
Y181293D01*
X131238Y181102D01*
X130314Y182026D01*
X129685Y182446D01*
X128944Y182593D01*
X128550D01*
Y183556D01*
X125019D01*
X124465Y184109D01*
X124002Y184419D01*
X123456Y184527D01*
X123456Y184527D01*
X120400D01*
Y185750D01*
X114600D01*
Y185750D01*
X114244D01*
X114144Y185850D01*
Y185850D01*
X112144D01*
Y183100D01*
Y180350D01*
X114144D01*
Y180450D01*
X114600D01*
Y180450D01*
X120400D01*
Y181673D01*
X122865D01*
X123250Y181287D01*
Y177756D01*
X123250Y177756D01*
X123250Y177600D01*
X123250D01*
Y171800D01*
X124218D01*
Y170897D01*
X122562Y169241D01*
X122100Y169432D01*
Y171400D01*
X116900D01*
Y172400D01*
X115900D01*
Y177600D01*
X111954D01*
X111954Y177600D01*
Y177600D01*
X111700Y177600D01*
X111600Y177700D01*
Y178350D01*
X107800D01*
Y172600D01*
X105800D01*
Y178350D01*
X102000D01*
Y166850D01*
X102100D01*
Y161150D01*
Y155450D01*
X102000D01*
Y143950D01*
X105800D01*
Y149700D01*
X107800D01*
Y143950D01*
X111600D01*
Y144500D01*
X111700Y144600D01*
X111954Y144600D01*
X111954Y144600D01*
Y144600D01*
X115900D01*
Y149800D01*
X116900D01*
Y150800D01*
X122100D01*
Y154964D01*
X117400D01*
Y156823D01*
X121000D01*
Y156964D01*
X121100D01*
Y157764D01*
X121000D01*
Y159382D01*
Y159655D01*
X122727D01*
X124191Y158191D01*
X124191Y158191D01*
X124191D01*
X124191Y158191D01*
X124191D01*
X124191Y158191D01*
Y158191D01*
Y158191D01*
D01*
D01*
X124191D01*
Y158191D01*
X124644Y157888D01*
Y156550D01*
X130444D01*
Y161850D01*
X130400D01*
Y161950D01*
X130400D01*
Y167250D01*
X125982D01*
X125791Y167712D01*
X127090Y169010D01*
X127090Y169010D01*
X127454Y169556D01*
X127582Y170200D01*
Y171800D01*
X128550D01*
Y171857D01*
X129012Y172048D01*
X130185Y170875D01*
X130814Y170455D01*
X131555Y170308D01*
X131700D01*
Y168945D01*
X135336D01*
X136569Y167712D01*
X136378Y167250D01*
X130956D01*
Y161950D01*
X131000D01*
Y161850D01*
X131000D01*
Y156550D01*
X136800D01*
Y157773D01*
X139573D01*
Y152200D01*
X138350D01*
Y146400D01*
X143650D01*
Y152200D01*
X142427D01*
Y158709D01*
X143691Y159973D01*
X145744D01*
Y159550D01*
X145744D01*
Y154250D01*
X146973D01*
Y153400D01*
X145200D01*
Y147600D01*
X151600D01*
Y149073D01*
X153900D01*
Y143600D01*
X155673D01*
Y142200D01*
Y138291D01*
X155409Y138027D01*
X147900D01*
X147900Y138027D01*
X147354Y137919D01*
X147168Y137795D01*
X146891Y137609D01*
X146891Y137609D01*
X145291Y136009D01*
X144981Y135546D01*
X144873Y135000D01*
X144873Y135000D01*
Y130291D01*
X144134Y129552D01*
X143672Y129744D01*
Y134119D01*
X138328D01*
Y133071D01*
X136850D01*
Y134500D01*
X136850D01*
Y134856D01*
X136950Y134956D01*
X136950D01*
Y136956D01*
X131450D01*
Y134956D01*
X131550D01*
Y134500D01*
X131550D01*
Y128700D01*
X136850D01*
Y130217D01*
X138328D01*
Y129169D01*
X143097D01*
X143232Y128843D01*
X142955Y128427D01*
X141400D01*
X140854Y128319D01*
X140391Y128009D01*
X140081Y127546D01*
X139973Y127000D01*
Y117244D01*
X139973Y117244D01*
X139973D01*
X140081Y116698D01*
X140391Y116235D01*
X140854Y115925D01*
X141400Y115817D01*
X141950D01*
Y114344D01*
X147250D01*
Y115817D01*
X148800D01*
Y114300D01*
X161800D01*
Y115817D01*
X171800D01*
Y114300D01*
X178300D01*
Y113300D01*
X179300D01*
Y110300D01*
X190100D01*
Y113300D01*
X191100D01*
Y114300D01*
X197600D01*
Y115828D01*
X198091Y115925D01*
X198554Y116235D01*
X200728Y118409D01*
X201000Y118355D01*
X201897Y118533D01*
X202658Y119042D01*
X203167Y119803D01*
X203345Y120700D01*
X203167Y121597D01*
X202658Y122358D01*
X201897Y122867D01*
X201000Y123045D01*
X200103Y122867D01*
X199342Y122358D01*
X198833Y121597D01*
X198655Y120700D01*
X198709Y120428D01*
X196953Y118672D01*
X147250D01*
Y120144D01*
X142827D01*
Y120700D01*
X147250D01*
Y122202D01*
X147646Y122281D01*
X148109Y122591D01*
X151919Y126400D01*
X161700D01*
Y127873D01*
X171900D01*
Y126400D01*
X197500D01*
Y127873D01*
X207700D01*
Y126400D01*
X220500D01*
Y132200D01*
X213219D01*
X212683Y132735D01*
Y135150D01*
X214156D01*
Y140450D01*
X208356D01*
Y135150D01*
X209829D01*
Y132200D01*
X207700D01*
Y130727D01*
X197500D01*
Y132200D01*
X189027D01*
Y137988D01*
X189258Y138142D01*
X189767Y138903D01*
X189945Y139800D01*
X189767Y140697D01*
X189258Y141458D01*
X188497Y141967D01*
X187600Y142145D01*
X186703Y141967D01*
X185942Y141458D01*
X185433Y140697D01*
X185255Y139800D01*
X185433Y138903D01*
X185942Y138142D01*
X186173Y137988D01*
Y132200D01*
X177027D01*
Y145549D01*
X184665D01*
X185988Y145284D01*
X186097Y144738D01*
X186406Y144275D01*
X187697Y142984D01*
X187697Y142984D01*
X188160Y142675D01*
X188160Y142675D01*
X188160Y142675D01*
D01*
X188160Y142675D01*
X188160Y142675D01*
X188706Y142566D01*
X188706Y142566D01*
X216515D01*
X226023Y133059D01*
Y111750D01*
X226023Y111750D01*
X226131Y111204D01*
X226441Y110741D01*
X227891Y109291D01*
X228354Y108981D01*
X228900Y108873D01*
X228900Y108873D01*
X229800D01*
Y107650D01*
X235600D01*
Y112950D01*
X229800D01*
Y112072D01*
X229338Y111881D01*
X228877Y112341D01*
Y133650D01*
X228769Y134196D01*
X228645Y134382D01*
X228459Y134659D01*
X228459Y134659D01*
X218115Y145003D01*
X217652Y145313D01*
X217106Y145421D01*
X217106Y145421D01*
X200619D01*
Y145549D01*
X200619D01*
Y153451D01*
X178623D01*
X178432Y153913D01*
X179591Y155073D01*
X192100D01*
X192100Y155073D01*
X192646Y155181D01*
X193109Y155491D01*
X196299Y158680D01*
X196299Y158680D01*
X196609Y159144D01*
X196717Y159690D01*
X196717Y159690D01*
Y166527D01*
X197179Y166718D01*
X199691Y164207D01*
X199691Y164206D01*
X200154Y163897D01*
X200154Y163897D01*
X200154Y163897D01*
D01*
X200154Y163897D01*
X200154Y163897D01*
X200700Y163788D01*
X201049Y162044D01*
Y161755D01*
X201149D01*
Y159887D01*
Y157918D01*
Y155950D01*
Y153981D01*
X209051D01*
Y155277D01*
X209513Y155468D01*
X212226Y152756D01*
X212155Y152400D01*
X212333Y151503D01*
X212842Y150742D01*
X213603Y150233D01*
X214500Y150055D01*
X215397Y150233D01*
X216158Y150742D01*
X216667Y151503D01*
X216845Y152400D01*
X216667Y153297D01*
X216158Y154058D01*
X215397Y154567D01*
X214500Y154745D01*
X214311Y154708D01*
X210667Y158351D01*
X210204Y158661D01*
X209658Y158769D01*
X209658Y158769D01*
X209051D01*
Y159887D01*
Y161755D01*
X209151D01*
Y162247D01*
X209051D01*
Y162671D01*
X205100D01*
Y163788D01*
X205277Y163823D01*
X209051D01*
Y164247D01*
X209151D01*
Y164739D01*
X209051D01*
Y165792D01*
Y167725D01*
X211050D01*
Y166356D01*
X211050D01*
Y166000D01*
X210950Y165900D01*
X210950D01*
Y163900D01*
X216450D01*
Y165900D01*
X216350D01*
Y166356D01*
X216350D01*
Y167829D01*
X219944D01*
X220098Y167598D01*
X220859Y167089D01*
X221756Y166911D01*
X222653Y167089D01*
X223414Y167598D01*
X223923Y168359D01*
X224101Y169256D01*
X223923Y170153D01*
X223414Y170914D01*
X222653Y171423D01*
X221756Y171601D01*
X220859Y171423D01*
X220098Y170914D01*
X219944Y170683D01*
X216350D01*
Y172156D01*
X211050D01*
Y170580D01*
X209051D01*
Y171698D01*
Y173666D01*
Y175635D01*
Y178419D01*
X203291D01*
X203100Y178881D01*
X205311Y181092D01*
X206000Y180955D01*
X206897Y181133D01*
X207658Y181642D01*
X208167Y182403D01*
X208345Y183300D01*
X208167Y184197D01*
X207658Y184958D01*
X206897Y185467D01*
X206000Y185645D01*
X205103Y185467D01*
X204342Y184958D01*
X203833Y184197D01*
X203698Y183517D01*
X201081Y180900D01*
X200619Y181091D01*
Y182522D01*
X200654Y182700D01*
Y183435D01*
X202928Y185709D01*
X203200Y185655D01*
X204097Y185833D01*
X204858Y186342D01*
X205367Y187103D01*
X205545Y188000D01*
X205367Y188897D01*
X204858Y189658D01*
X204097Y190167D01*
X203200Y190345D01*
X202303Y190167D01*
X201542Y189658D01*
X201033Y188897D01*
X200855Y188000D01*
X200909Y187728D01*
X199832Y186651D01*
X192845D01*
Y186751D01*
X190812D01*
Y197693D01*
X195591Y202473D01*
X196861D01*
Y199063D01*
X220315D01*
Y208737D01*
X220315D01*
Y208808D01*
X220457Y208950D01*
X220700D01*
D01*
D01*
X220700D01*
Y208950D01*
X222700D01*
Y211700D01*
Y214450D01*
X220700D01*
Y214350D01*
X220244D01*
Y214350D01*
X214444D01*
Y213127D01*
X212600D01*
X212600Y213127D01*
X212054Y213019D01*
X211868Y212895D01*
X211591Y212709D01*
X211591Y212709D01*
X207618Y208737D01*
X196861D01*
Y205327D01*
X195000D01*
X195000Y205327D01*
X194454Y205219D01*
X193991Y204909D01*
X188750Y199669D01*
X188250D01*
X183009Y204909D01*
X182546Y205219D01*
X182000Y205327D01*
X182000Y205327D01*
X181339D01*
Y208737D01*
X168082D01*
X164109Y212709D01*
X163646Y213019D01*
X163100Y213127D01*
D01*
D01*
D01*
X163100Y213127D01*
D01*
X162800Y213427D01*
Y214350D01*
X157000D01*
Y214350D01*
X156644D01*
X156544Y214450D01*
D02*
G37*
G36*
X226700Y214450D02*
X224700D01*
Y212700D01*
X226700D01*
Y214450D01*
D02*
G37*
G36*
X252831Y214472D02*
X251256D01*
Y212700D01*
X252831D01*
Y214472D01*
D02*
G37*
G36*
X152544Y214450D02*
X150544D01*
Y212700D01*
X152544D01*
Y214450D01*
D02*
G37*
G36*
Y210700D02*
X150544D01*
Y208950D01*
X152544D01*
Y210700D01*
D02*
G37*
G36*
X226700D02*
X224700D01*
Y208950D01*
X226700D01*
Y210700D01*
D02*
G37*
G36*
X174700Y192850D02*
X172700D01*
Y191100D01*
X174700D01*
Y192850D01*
D02*
G37*
G36*
X110144Y185850D02*
X108144D01*
Y184100D01*
X110144D01*
Y185850D01*
D02*
G37*
G36*
Y182100D02*
X108144D01*
Y180350D01*
X110144D01*
Y182100D01*
D02*
G37*
G36*
X174700Y189100D02*
X172700D01*
Y187350D01*
X174700D01*
Y189100D01*
D02*
G37*
G36*
X257600Y190345D02*
X256703Y190167D01*
X256359Y189937D01*
X240500D01*
X239759Y189790D01*
X239130Y189370D01*
X236160Y186400D01*
X228100D01*
Y175600D01*
X229682D01*
X229843Y175127D01*
X229577Y174923D01*
X228696Y173774D01*
X228142Y172436D01*
X228084Y172000D01*
X233500D01*
Y170000D01*
X228084D01*
X228142Y169564D01*
X228696Y168226D01*
X229577Y167077D01*
X230656Y166250D01*
Y165750D01*
X229577Y164923D01*
X228696Y163774D01*
X228142Y162436D01*
X228084Y162000D01*
X233500D01*
Y160000D01*
X228084D01*
X228142Y159564D01*
X228696Y158226D01*
X229577Y157077D01*
X230726Y156196D01*
X230777Y156175D01*
Y155717D01*
X229649Y154851D01*
X228783Y153723D01*
X228239Y152410D01*
X228053Y151000D01*
X228239Y149590D01*
X228783Y148277D01*
X229649Y147149D01*
X230777Y146283D01*
Y145825D01*
X230726Y145804D01*
X229577Y144923D01*
X228696Y143774D01*
X228142Y142436D01*
X228084Y142000D01*
X233500D01*
Y141000D01*
X234500D01*
Y135584D01*
X234936Y135642D01*
X236274Y136196D01*
X237423Y137077D01*
X238304Y138226D01*
X238325Y138277D01*
X238783D01*
X239649Y137149D01*
X240777Y136283D01*
X242090Y135739D01*
X243500Y135553D01*
X244910Y135739D01*
X246223Y136283D01*
X247351Y137149D01*
X248217Y138277D01*
X248422Y138773D01*
X272400D01*
X272400Y138773D01*
X272946Y138881D01*
X273409Y139191D01*
X282719Y148500D01*
X288900D01*
Y153500D01*
Y158500D01*
Y163500D01*
Y168500D01*
Y173500D01*
X284627D01*
Y176000D01*
X284627Y176000D01*
X284519Y176546D01*
X284209Y177009D01*
X284209Y177009D01*
X279209Y182009D01*
X278746Y182319D01*
X278200Y182427D01*
X278200Y182427D01*
X248754D01*
X248217Y183723D01*
X247351Y184851D01*
X246390Y185589D01*
X246550Y186063D01*
X256359D01*
X256703Y185833D01*
X257600Y185655D01*
X258497Y185833D01*
X259258Y186342D01*
X259767Y187103D01*
X259945Y188000D01*
X259767Y188897D01*
X259258Y189658D01*
X258497Y190167D01*
X257600Y190345D01*
D02*
G37*
%LPD*%
G36*
X151256Y194900D02*
X162800D01*
Y188900D01*
X161500D01*
Y181300D01*
Y173700D01*
X162800D01*
Y169219D01*
X161109Y167527D01*
X141000D01*
Y176800D01*
X132600D01*
Y177900D01*
X135300D01*
Y181300D01*
Y184700D01*
X132600D01*
Y185800D01*
X141000D01*
Y194900D01*
X150256D01*
Y197700D01*
X151256D01*
Y194900D01*
D02*
G37*
G36*
X261900Y173500D02*
X261900D01*
Y172937D01*
X258841D01*
X258497Y173167D01*
X257600Y173345D01*
X256703Y173167D01*
X255942Y172658D01*
X255433Y171897D01*
X255255Y171000D01*
X255433Y170103D01*
X255942Y169342D01*
X256703Y168833D01*
X257600Y168655D01*
X258497Y168833D01*
X258841Y169063D01*
X261800D01*
Y168600D01*
X261800D01*
Y167000D01*
X267600D01*
Y165000D01*
X261800D01*
Y163400D01*
Y162000D01*
X273400D01*
Y163400D01*
Y168600D01*
X273300D01*
Y171428D01*
X273557Y171534D01*
X273973Y171257D01*
Y168000D01*
X273973Y168000D01*
X274081Y167454D01*
X274391Y166991D01*
X276391Y164991D01*
X276391Y164991D01*
X276854Y164681D01*
X277400Y164573D01*
X277500Y164073D01*
Y163500D01*
Y162328D01*
X277454Y162319D01*
X276991Y162009D01*
X276991Y162009D01*
X274091Y159109D01*
X273879Y158792D01*
X273400Y158937D01*
Y160000D01*
X261800D01*
Y158400D01*
X261900D01*
Y153600D01*
X261800D01*
Y152000D01*
X267600D01*
Y150000D01*
X261800D01*
Y148400D01*
D01*
Y148400D01*
X261727Y148327D01*
X258191D01*
X248224Y158294D01*
X248761Y159590D01*
X248947Y161000D01*
X248761Y162410D01*
X248217Y163723D01*
X247351Y164851D01*
X246223Y165717D01*
X246143Y165750D01*
Y166250D01*
X246223Y166283D01*
X247351Y167149D01*
X248217Y168277D01*
X248761Y169590D01*
X248947Y171000D01*
X248761Y172410D01*
X248286Y173557D01*
X248564Y173973D01*
X261900D01*
Y173500D01*
D02*
G37*
G36*
X152100Y159550D02*
X152100D01*
Y154250D01*
X157900D01*
Y155473D01*
X163100D01*
X163100Y155473D01*
X163646Y155581D01*
X164109Y155891D01*
X166102Y157883D01*
X167749D01*
Y155950D01*
Y153981D01*
X173954D01*
X174271Y153595D01*
X174173Y153100D01*
X174173Y153100D01*
Y132200D01*
X171900D01*
Y130727D01*
X161700D01*
Y132200D01*
X148900D01*
Y127419D01*
X147712Y126231D01*
X147250Y126422D01*
Y126500D01*
X145772D01*
X145581Y126962D01*
X147309Y128691D01*
X147309Y128691D01*
X147619Y129154D01*
X147619Y129154D01*
X147619Y129154D01*
X147727Y129700D01*
X147727Y129700D01*
Y134409D01*
X148491Y135173D01*
X156000D01*
X156000Y135173D01*
X156546Y135281D01*
X157009Y135591D01*
X158109Y136691D01*
X158109Y136691D01*
X158419Y137154D01*
X158527Y137700D01*
Y140773D01*
X162300D01*
X162300Y140773D01*
X162438Y140800D01*
X166450D01*
Y146600D01*
X161150D01*
Y143627D01*
X160300D01*
Y149073D01*
X161150D01*
Y147156D01*
X166450D01*
Y152956D01*
X161150D01*
Y151927D01*
X151600D01*
Y153400D01*
X149827D01*
Y154250D01*
X151544D01*
Y159550D01*
X151544D01*
Y159619D01*
X151898Y159973D01*
X152100D01*
Y159550D01*
D02*
G37*
%LPC*%
G36*
X160500Y188900D02*
X156800D01*
Y181800D01*
X160500D01*
Y188900D01*
D02*
G37*
G36*
Y180800D02*
X156800D01*
Y173700D01*
X160500D01*
Y180800D01*
D02*
G37*
G36*
X140000D02*
X136300D01*
Y177900D01*
X140000D01*
Y180800D01*
D02*
G37*
G36*
Y184700D02*
X136300D01*
Y181800D01*
X140000D01*
Y184700D01*
D02*
G37*
%LPD*%
D10*
X106800Y157900D02*
D03*
Y164400D02*
D03*
D11*
Y172600D02*
D03*
Y149700D02*
D03*
D12*
X116900Y172400D02*
D03*
Y149800D02*
D03*
D13*
X117400Y155964D02*
D03*
Y158523D02*
D03*
Y161082D02*
D03*
Y163641D02*
D03*
Y166200D02*
D03*
D14*
X208588Y203900D02*
D03*
X169612D02*
D03*
D15*
X150756Y197700D02*
D03*
X144400D02*
D03*
X111144Y183100D02*
D03*
X117500D02*
D03*
X133900Y159200D02*
D03*
X127544D02*
D03*
X127500Y164600D02*
D03*
X133856D02*
D03*
X204900Y137800D02*
D03*
X211256D02*
D03*
X232700Y110300D02*
D03*
X239056D02*
D03*
X182056Y190100D02*
D03*
X175700D02*
D03*
X155000Y156900D02*
D03*
X148644D02*
D03*
X239100Y211700D02*
D03*
X232744D02*
D03*
X217344D02*
D03*
X223700D02*
D03*
X153544D02*
D03*
X159900D02*
D03*
D16*
X161000Y181300D02*
D03*
D17*
X135800D02*
D03*
Y190355D02*
D03*
Y172245D02*
D03*
D18*
X125900Y180656D02*
D03*
Y174700D02*
D03*
X134200Y131600D02*
D03*
Y137956D02*
D03*
X144600Y123600D02*
D03*
Y117244D02*
D03*
X213700Y169256D02*
D03*
Y162900D02*
D03*
X163800Y143700D02*
D03*
Y150056D02*
D03*
X141000Y149300D02*
D03*
Y142944D02*
D03*
D19*
Y131644D02*
D03*
Y137156D02*
D03*
D20*
X155300Y129300D02*
D03*
Y113300D02*
D03*
X178300Y129300D02*
D03*
Y113300D02*
D03*
X191100Y129300D02*
D03*
Y113300D02*
D03*
X214100Y129300D02*
D03*
Y113300D02*
D03*
D21*
X250256Y110300D02*
D03*
X244744D02*
D03*
X250256Y211700D02*
D03*
X244744D02*
D03*
D22*
X283200Y151000D02*
D03*
Y156000D02*
D03*
Y161000D02*
D03*
Y166000D02*
D03*
Y171000D02*
D03*
X267600Y151000D02*
D03*
Y156000D02*
D03*
Y161000D02*
D03*
Y166000D02*
D03*
Y171000D02*
D03*
D23*
X205100Y177027D02*
D03*
Y175058D02*
D03*
Y173090D02*
D03*
Y171121D02*
D03*
Y169153D02*
D03*
Y167184D02*
D03*
Y165216D02*
D03*
Y163247D02*
D03*
Y161279D02*
D03*
Y159310D02*
D03*
Y157342D02*
D03*
Y155373D02*
D03*
X171700D02*
D03*
Y157342D02*
D03*
Y159310D02*
D03*
Y161279D02*
D03*
Y163247D02*
D03*
Y165216D02*
D03*
Y167184D02*
D03*
Y169153D02*
D03*
Y171121D02*
D03*
Y173090D02*
D03*
Y175058D02*
D03*
Y177027D02*
D03*
D24*
X199227Y149500D02*
D03*
X197258D02*
D03*
X195290D02*
D03*
X193321D02*
D03*
X191353D02*
D03*
X189384D02*
D03*
X187416D02*
D03*
X185447D02*
D03*
X183479D02*
D03*
X181510D02*
D03*
X179542D02*
D03*
X177573D02*
D03*
Y182700D02*
D03*
X179542D02*
D03*
X181510D02*
D03*
X183479D02*
D03*
X185447D02*
D03*
X187416D02*
D03*
X189384D02*
D03*
X191353D02*
D03*
X193321D02*
D03*
X195290D02*
D03*
X197258D02*
D03*
X199227D02*
D03*
D25*
X148400Y150500D02*
D03*
Y142500D02*
D03*
X157100Y146500D02*
D03*
D26*
X187416Y145284D02*
X188706Y143994D01*
X187416Y145284D02*
Y149500D01*
X144600Y117244D02*
X197544D01*
X201000Y120700D01*
X198000Y174700D02*
X198100D01*
X175600Y129300D02*
Y153100D01*
X179000Y156500D01*
X205500Y183300D02*
X206000D01*
X199900Y177700D02*
X205500Y183300D01*
X197258Y177700D02*
X199900D01*
X197258D02*
Y182700D01*
X195290Y159690D02*
Y182700D01*
X198000Y175100D02*
X198200Y175300D01*
X199227Y184027D02*
X203200Y188000D01*
X199227Y182700D02*
Y184027D01*
X213597Y169153D02*
X213700Y169256D01*
X177100Y177000D02*
X177673D01*
X177700Y177027D01*
X179542Y179145D02*
Y182700D01*
Y179145D02*
X180438Y178249D01*
X180500Y173800D02*
Y178187D01*
X180451Y178235D02*
X180500Y178187D01*
X180451Y178235D02*
Y178249D01*
X180438D02*
X180451D01*
X171700Y177027D02*
X177700D01*
X198100Y175300D02*
X198200D01*
X198000Y175200D02*
X198100Y175300D01*
X162300Y142200D02*
X163800Y143700D01*
X157100Y142200D02*
X162300D01*
X157100D02*
Y146500D01*
X163356Y150500D02*
X163800Y150056D01*
X148400Y150500D02*
X163356D01*
X148400Y156656D02*
X148644Y156900D01*
X148400Y150500D02*
Y156656D01*
X165647Y163247D02*
X171700D01*
X163800Y161400D02*
X165647Y163247D01*
X165510Y159310D02*
X171700D01*
X163100Y156900D02*
X165510Y159310D01*
X155000Y156900D02*
X163100D01*
X134200Y131600D02*
X134244Y131644D01*
X141000D01*
X125200Y159200D02*
X127544D01*
X123318Y161082D02*
X125200Y159200D01*
X117400Y161082D02*
X123318D01*
X124700Y164600D02*
X127500D01*
X123741Y163641D02*
X124700Y164600D01*
X117400Y163641D02*
X123741D01*
X195000Y203900D02*
X208588D01*
X189384Y198284D02*
X195000Y203900D01*
X278200Y156000D02*
X283200D01*
X277000Y154800D02*
X278200Y156000D01*
X277000Y148000D02*
Y154800D01*
X273000Y144000D02*
X277000Y148000D01*
X250500Y144000D02*
X273000D01*
X243500Y151000D02*
X250500Y144000D01*
X200700Y165216D02*
X205100D01*
X198000Y167916D02*
X200700Y165216D01*
X198000Y167916D02*
Y175200D01*
X187600Y129300D02*
X191100D01*
X193321Y161521D02*
Y182700D01*
X211256Y132144D02*
Y137800D01*
Y132144D02*
X214100Y129300D01*
X184700Y173500D02*
X185447Y174247D01*
Y182700D01*
X201000Y137800D02*
X204900D01*
X213700Y169256D02*
X221756D01*
X243500Y171000D02*
X247900Y175400D01*
X272000D01*
X275400Y172000D01*
Y168000D02*
Y172000D01*
Y168000D02*
X277400Y166000D01*
X283200D01*
Y171000D02*
Y176000D01*
X278200Y181000D02*
X283200Y176000D01*
X243500Y181000D02*
X278200D01*
X175600Y129300D02*
X178300D01*
X191100D02*
X214100D01*
X157100Y137700D02*
Y146500D01*
X156000Y136600D02*
X157100Y137700D01*
X147900Y136600D02*
X156000D01*
X146300Y135000D02*
X147900Y136600D01*
X146300Y129700D02*
Y135000D01*
X143600Y127000D02*
X146300Y129700D01*
X141400Y127000D02*
X143600D01*
X141400Y117244D02*
Y127000D01*
Y117244D02*
X144600D01*
X278000Y161000D02*
X283200D01*
X275100Y158100D02*
X278000Y161000D01*
X275100Y149700D02*
Y158100D01*
X272300Y146900D02*
X275100Y149700D01*
X257600Y146900D02*
X272300D01*
X243500Y161000D02*
X257600Y146900D01*
X155300Y129300D02*
X175600D01*
X152800D02*
X155300D01*
X147100Y123600D02*
X152800Y129300D01*
X144600Y123600D02*
X147100D01*
X144844Y142500D02*
X148400D01*
X144400Y142944D02*
X144844Y142500D01*
X141000Y142944D02*
X144400D01*
X141000Y137156D02*
Y142944D01*
X205100Y169153D02*
X213597D01*
X188706Y143994D02*
X217106D01*
X227450Y133650D01*
Y111750D02*
Y133650D01*
Y111750D02*
X228900Y110300D01*
X232700D01*
X228344Y204500D02*
X230900Y207056D01*
Y209856D01*
X232744Y211700D01*
X239100D02*
X244744D01*
X189384Y182700D02*
Y198284D01*
X182000Y203900D02*
X187416Y198484D01*
Y182700D02*
Y198484D01*
X212600Y211700D02*
X217344D01*
X208588Y207688D02*
X212600Y211700D01*
X159100D02*
X163100D01*
X170900Y203900D01*
X182000D01*
X185447Y182700D02*
Y189253D01*
X184600Y190100D02*
X185447Y189253D01*
X182056Y190100D02*
X184600D01*
X243500Y141000D02*
X245900Y138600D01*
X245200Y140200D02*
X272400D01*
X283200Y151000D01*
X192100Y156500D02*
X195290Y159690D01*
X179000Y156500D02*
X192100D01*
X191700Y159900D02*
X193321Y161521D01*
X187700Y159900D02*
X191700D01*
X187600Y129300D02*
Y139800D01*
X239056Y110300D02*
X244744D01*
X133900Y159200D02*
X141000D01*
Y149300D02*
Y159200D01*
X133900D02*
X140900D01*
X143100Y161400D01*
X163800D01*
X133856Y164600D02*
X134656Y163800D01*
X162800D01*
X135800Y170500D02*
Y172245D01*
Y170500D02*
X140200Y166100D01*
X162800Y163800D02*
X164216Y165216D01*
X171700D01*
X140200Y166100D02*
X161700D01*
X166200Y170600D01*
Y173500D01*
X167758Y175058D01*
X171700D01*
X117500Y183100D02*
X123456D01*
X125900Y180656D01*
X191353Y182700D02*
Y187553D01*
X205100Y157342D02*
X209658D01*
X214600Y152400D01*
X116000Y222047D02*
G03*
X100000Y206000I0J-16000D01*
G01*
X99999Y116000D02*
G03*
X116000Y99999I16001J0D01*
G01*
X296803Y206000D02*
G03*
X280800Y222050I-16003J47D01*
G01*
Y100039D02*
G03*
X296861Y116100I0J16061D01*
G01*
X116000Y222047D02*
X280800D01*
X296850Y116100D02*
Y206000D01*
X100000Y116000D02*
Y206000D01*
X116000Y100000D02*
X280800D01*
D27*
X184700Y172500D02*
Y173333D01*
X179400Y167200D02*
X184700Y172500D01*
X178500Y167200D02*
X179400D01*
X161000Y181300D02*
X168500D01*
X131555Y172245D02*
X135800D01*
X130200Y173600D02*
X131555Y172245D01*
X130200Y173600D02*
Y179400D01*
X128944Y180656D02*
X130200Y179400D01*
X125900Y180656D02*
X128944D01*
X257600Y171000D02*
X267600D01*
X240500Y188000D02*
X257600D01*
X233500Y181000D02*
X240500Y188000D01*
X150756Y192056D02*
Y197700D01*
D28*
X121900Y166200D02*
X125900Y170200D01*
X117400Y166200D02*
X121900D01*
X125900Y170200D02*
Y174700D01*
D29*
X135800Y181300D02*
X160500D01*
D30*
X116000Y116000D02*
D03*
Y206047D02*
D03*
X280800Y116100D02*
D03*
Y206047D02*
D03*
D31*
X243500Y141000D02*
D03*
X233500D02*
D03*
X243500Y151000D02*
D03*
Y161000D02*
D03*
Y171000D02*
D03*
Y181000D02*
D03*
X233500Y171000D02*
D03*
Y161000D02*
D03*
Y151000D02*
D03*
D32*
Y181000D02*
D03*
D33*
X201000Y120700D02*
D03*
X198100Y174700D02*
D03*
X178500Y167200D02*
D03*
X180500Y173800D02*
D03*
X177100Y177000D02*
D03*
X203200Y188000D02*
D03*
X206000Y183300D02*
D03*
X228344Y204500D02*
D03*
X187600Y139800D02*
D03*
X184700Y173500D02*
D03*
X201000Y137800D02*
D03*
X221756Y169256D02*
D03*
X257600Y171000D02*
D03*
Y188000D02*
D03*
X168500Y181300D02*
D03*
X187700Y159900D02*
D03*
X252600Y160500D02*
D03*
X291800Y132600D02*
D03*
X292100Y189500D02*
D03*
X264700Y217400D02*
D03*
X132500Y217900D02*
D03*
X104100Y189800D02*
D03*
X104200Y132100D02*
D03*
X131800Y104300D02*
D03*
X264600Y104100D02*
D03*
X207500Y149400D02*
D03*
X170500Y140400D02*
D03*
X181100Y140300D02*
D03*
X194500Y190500D02*
D03*
X188500Y203700D02*
D03*
X169500Y190500D02*
D03*
X166400Y112600D02*
D03*
X202600Y112400D02*
D03*
X165800Y122700D02*
D03*
X214500Y152400D02*
D03*
M02*
